<mxfile host="Electron" modified="2024-05-04T16:34:31.188Z" agent="Mozilla/5.0 (Windows NT 10.0; Win64; x64) AppleWebKit/537.36 (KHTML, like Gecko) draw.io/24.2.5 Chrome/120.0.6099.109 Electron/28.1.0 Safari/537.36" etag="mxRDjzRbjRBgKgy8UOic" version="24.2.5" type="device" pages="2">
  <diagram name="Page-1" id="n6Wm4xatbLt7hEbNFKrT">
    <mxGraphModel dx="2247" dy="1999" grid="1" gridSize="10" guides="1" tooltips="1" connect="1" arrows="1" fold="1" page="1" pageScale="1" pageWidth="827" pageHeight="1169" math="0" shadow="0">
      <root>
        <mxCell id="0" />
        <mxCell id="1" parent="0" />
        <mxCell id="4F1QlJ6JB6xt5xaRoZOq-3" value="" style="edgeStyle=orthogonalEdgeStyle;rounded=0;orthogonalLoop=1;jettySize=auto;html=1;flowAnimation=1;" parent="1" source="4F1QlJ6JB6xt5xaRoZOq-1" target="4F1QlJ6JB6xt5xaRoZOq-2" edge="1">
          <mxGeometry relative="1" as="geometry">
            <Array as="points">
              <mxPoint x="100" y="50" />
              <mxPoint x="100" y="50" />
            </Array>
          </mxGeometry>
        </mxCell>
        <mxCell id="4F1QlJ6JB6xt5xaRoZOq-1" value="start" style="ellipse;whiteSpace=wrap;html=1;" parent="1" vertex="1">
          <mxGeometry x="40" y="20" width="120" height="80" as="geometry" />
        </mxCell>
        <mxCell id="4F1QlJ6JB6xt5xaRoZOq-28" value="" style="edgeStyle=orthogonalEdgeStyle;rounded=0;orthogonalLoop=1;jettySize=auto;html=1;flowAnimation=1;" parent="1" source="4F1QlJ6JB6xt5xaRoZOq-2" target="4F1QlJ6JB6xt5xaRoZOq-27" edge="1">
          <mxGeometry relative="1" as="geometry" />
        </mxCell>
        <mxCell id="4F1QlJ6JB6xt5xaRoZOq-2" value="log in" style="whiteSpace=wrap;html=1;" parent="1" vertex="1">
          <mxGeometry x="200" y="20" width="120" height="60" as="geometry" />
        </mxCell>
        <mxCell id="4F1QlJ6JB6xt5xaRoZOq-33" value="" style="edgeStyle=orthogonalEdgeStyle;rounded=0;orthogonalLoop=1;jettySize=auto;html=1;flowAnimation=1;" parent="1" source="4F1QlJ6JB6xt5xaRoZOq-27" target="4F1QlJ6JB6xt5xaRoZOq-32" edge="1">
          <mxGeometry relative="1" as="geometry" />
        </mxCell>
        <mxCell id="4F1QlJ6JB6xt5xaRoZOq-27" value="Go to portal home page" style="whiteSpace=wrap;html=1;" parent="1" vertex="1">
          <mxGeometry x="354" y="20" width="120" height="60" as="geometry" />
        </mxCell>
        <mxCell id="4F1QlJ6JB6xt5xaRoZOq-30" value="" style="edgeStyle=orthogonalEdgeStyle;rounded=0;orthogonalLoop=1;jettySize=auto;html=1;endArrow=none;endFill=0;" parent="1" source="4F1QlJ6JB6xt5xaRoZOq-29" target="4F1QlJ6JB6xt5xaRoZOq-27" edge="1">
          <mxGeometry relative="1" as="geometry">
            <Array as="points">
              <mxPoint x="340" y="120" />
              <mxPoint x="340" y="120" />
            </Array>
          </mxGeometry>
        </mxCell>
        <mxCell id="4F1QlJ6JB6xt5xaRoZOq-29" value="at top shows summary of account balence" style="shape=note;whiteSpace=wrap;html=1;backgroundOutline=1;fontColor=#000000;darkOpacity=0.05;fillColor=#FFF9B2;strokeColor=none;fillStyle=solid;direction=west;gradientDirection=north;gradientColor=#FFF2A1;shadow=1;size=20;pointerEvents=1;" parent="1" vertex="1">
          <mxGeometry x="10" y="120" width="70" height="160" as="geometry" />
        </mxCell>
        <mxCell id="4F1QlJ6JB6xt5xaRoZOq-55" value="" style="edgeStyle=orthogonalEdgeStyle;rounded=0;orthogonalLoop=1;jettySize=auto;html=1;flowAnimation=1;" parent="1" source="4F1QlJ6JB6xt5xaRoZOq-32" target="4F1QlJ6JB6xt5xaRoZOq-54" edge="1">
          <mxGeometry relative="1" as="geometry">
            <Array as="points">
              <mxPoint x="520" y="120" />
              <mxPoint x="340" y="120" />
            </Array>
          </mxGeometry>
        </mxCell>
        <mxCell id="4F1QlJ6JB6xt5xaRoZOq-58" value="" style="edgeStyle=orthogonalEdgeStyle;rounded=0;orthogonalLoop=1;jettySize=auto;html=1;flowAnimation=1;" parent="1" source="4F1QlJ6JB6xt5xaRoZOq-32" target="4F1QlJ6JB6xt5xaRoZOq-57" edge="1">
          <mxGeometry relative="1" as="geometry">
            <Array as="points">
              <mxPoint x="520" y="120" />
              <mxPoint x="560" y="120" />
            </Array>
          </mxGeometry>
        </mxCell>
        <mxCell id="4F1QlJ6JB6xt5xaRoZOq-65" style="edgeStyle=orthogonalEdgeStyle;rounded=0;orthogonalLoop=1;jettySize=auto;html=1;flowAnimation=1;" parent="1" source="4F1QlJ6JB6xt5xaRoZOq-32" target="4F1QlJ6JB6xt5xaRoZOq-63" edge="1">
          <mxGeometry relative="1" as="geometry">
            <Array as="points">
              <mxPoint x="520" y="120" />
              <mxPoint x="150" y="120" />
            </Array>
          </mxGeometry>
        </mxCell>
        <mxCell id="4F1QlJ6JB6xt5xaRoZOq-71" style="edgeStyle=orthogonalEdgeStyle;rounded=0;orthogonalLoop=1;jettySize=auto;html=1;flowAnimation=1;" parent="1" source="4F1QlJ6JB6xt5xaRoZOq-32" edge="1">
          <mxGeometry relative="1" as="geometry">
            <mxPoint x="730" y="210" as="targetPoint" />
            <Array as="points">
              <mxPoint x="520" y="140" />
              <mxPoint x="730" y="140" />
            </Array>
          </mxGeometry>
        </mxCell>
        <mxCell id="4F1QlJ6JB6xt5xaRoZOq-32" value="select menue" style="whiteSpace=wrap;html=1;" parent="1" vertex="1">
          <mxGeometry x="530" y="20" width="120" height="60" as="geometry" />
        </mxCell>
        <mxCell id="4F1QlJ6JB6xt5xaRoZOq-61" style="edgeStyle=orthogonalEdgeStyle;rounded=0;orthogonalLoop=1;jettySize=auto;html=1;endArrow=none;endFill=0;" parent="1" source="4F1QlJ6JB6xt5xaRoZOq-34" target="4F1QlJ6JB6xt5xaRoZOq-32" edge="1">
          <mxGeometry relative="1" as="geometry" />
        </mxCell>
        <mxCell id="4F1QlJ6JB6xt5xaRoZOq-34" value="selection area is visible on account home page, changeing info might be seperate (all the things mentioned bellow" style="shape=note;whiteSpace=wrap;html=1;backgroundOutline=1;fontColor=#000000;darkOpacity=0.05;fillColor=#FFF9B2;strokeColor=none;fillStyle=solid;direction=west;gradientDirection=north;gradientColor=#FFF2A1;shadow=1;size=20;pointerEvents=1;" parent="1" vertex="1">
          <mxGeometry x="414" y="-250" width="140" height="160" as="geometry" />
        </mxCell>
        <mxCell id="4F1QlJ6JB6xt5xaRoZOq-40" value="deposit" style="whiteSpace=wrap;html=1;" parent="1" vertex="1">
          <mxGeometry x="80" y="750" width="120" height="60" as="geometry" />
        </mxCell>
        <mxCell id="4F1QlJ6JB6xt5xaRoZOq-42" value="withdraw" style="whiteSpace=wrap;html=1;" parent="1" vertex="1">
          <mxGeometry x="90" y="550" width="120" height="60" as="geometry" />
        </mxCell>
        <mxCell id="4F1QlJ6JB6xt5xaRoZOq-49" value="transfer" style="whiteSpace=wrap;html=1;" parent="1" vertex="1">
          <mxGeometry x="300" y="555" width="120" height="60" as="geometry" />
        </mxCell>
        <mxCell id="XtUtBU1WWb-rquu9KspY-10" value="" style="edgeStyle=orthogonalEdgeStyle;rounded=0;orthogonalLoop=1;jettySize=auto;html=1;flowAnimation=1;" parent="1" source="4F1QlJ6JB6xt5xaRoZOq-54" target="XtUtBU1WWb-rquu9KspY-9" edge="1">
          <mxGeometry relative="1" as="geometry" />
        </mxCell>
        <mxCell id="4F1QlJ6JB6xt5xaRoZOq-54" value="display accounts (as a list)" style="whiteSpace=wrap;html=1;" parent="1" vertex="1">
          <mxGeometry x="280" y="190" width="120" height="60" as="geometry" />
        </mxCell>
        <mxCell id="4F1QlJ6JB6xt5xaRoZOq-77" value="" style="edgeStyle=orthogonalEdgeStyle;rounded=0;orthogonalLoop=1;jettySize=auto;html=1;" parent="1" source="4F1QlJ6JB6xt5xaRoZOq-57" target="4F1QlJ6JB6xt5xaRoZOq-76" edge="1">
          <mxGeometry relative="1" as="geometry" />
        </mxCell>
        <mxCell id="4F1QlJ6JB6xt5xaRoZOq-57" value="adjust personal information" style="whiteSpace=wrap;html=1;" parent="1" vertex="1">
          <mxGeometry x="500" y="190" width="120" height="60" as="geometry" />
        </mxCell>
        <mxCell id="XtUtBU1WWb-rquu9KspY-7" value="" style="edgeStyle=orthogonalEdgeStyle;rounded=0;orthogonalLoop=1;jettySize=auto;html=1;flowAnimation=1;" parent="1" source="4F1QlJ6JB6xt5xaRoZOq-63" target="XtUtBU1WWb-rquu9KspY-6" edge="1">
          <mxGeometry relative="1" as="geometry" />
        </mxCell>
        <mxCell id="4F1QlJ6JB6xt5xaRoZOq-63" value="view all history" style="whiteSpace=wrap;html=1;" parent="1" vertex="1">
          <mxGeometry x="90" y="180" width="120" height="60" as="geometry" />
        </mxCell>
        <mxCell id="4F1QlJ6JB6xt5xaRoZOq-121" style="edgeStyle=orthogonalEdgeStyle;rounded=0;orthogonalLoop=1;jettySize=auto;html=1;flowAnimation=1;" parent="1" source="4F1QlJ6JB6xt5xaRoZOq-69" target="4F1QlJ6JB6xt5xaRoZOq-109" edge="1">
          <mxGeometry relative="1" as="geometry">
            <Array as="points">
              <mxPoint x="650" y="210" />
            </Array>
          </mxGeometry>
        </mxCell>
        <mxCell id="4F1QlJ6JB6xt5xaRoZOq-69" value="exit" style="whiteSpace=wrap;html=1;" parent="1" vertex="1">
          <mxGeometry x="670" y="190" width="120" height="60" as="geometry" />
        </mxCell>
        <mxCell id="4F1QlJ6JB6xt5xaRoZOq-72" value="shows a button to alter, perhaps displays (non-personal such as name) under account title?" style="shape=note;whiteSpace=wrap;html=1;backgroundOutline=1;fontColor=#000000;darkOpacity=0.05;fillColor=#FFF9B2;strokeColor=none;fillStyle=solid;direction=west;gradientDirection=north;gradientColor=#FFF2A1;shadow=1;size=20;pointerEvents=1;" parent="1" vertex="1">
          <mxGeometry x="414" y="150" width="140" height="60" as="geometry" />
        </mxCell>
        <mxCell id="4F1QlJ6JB6xt5xaRoZOq-75" style="edgeStyle=orthogonalEdgeStyle;rounded=0;orthogonalLoop=1;jettySize=auto;html=1;entryX=0.5;entryY=0;entryDx=0;entryDy=0;entryPerimeter=0;jumpStyle=none;endArrow=none;endFill=0;" parent="1" source="4F1QlJ6JB6xt5xaRoZOq-57" target="4F1QlJ6JB6xt5xaRoZOq-72" edge="1">
          <mxGeometry relative="1" as="geometry">
            <Array as="points">
              <mxPoint x="484" y="210" />
            </Array>
          </mxGeometry>
        </mxCell>
        <mxCell id="4F1QlJ6JB6xt5xaRoZOq-79" value="" style="edgeStyle=orthogonalEdgeStyle;rounded=0;orthogonalLoop=1;jettySize=auto;html=1;flowAnimation=1;" parent="1" source="4F1QlJ6JB6xt5xaRoZOq-76" target="4F1QlJ6JB6xt5xaRoZOq-78" edge="1">
          <mxGeometry relative="1" as="geometry" />
        </mxCell>
        <mxCell id="4F1QlJ6JB6xt5xaRoZOq-76" value="display information (obsfucate private info)" style="whiteSpace=wrap;html=1;" parent="1" vertex="1">
          <mxGeometry x="500" y="290" width="120" height="60" as="geometry" />
        </mxCell>
        <mxCell id="4F1QlJ6JB6xt5xaRoZOq-78" value="request login credentials" style="whiteSpace=wrap;html=1;" parent="1" vertex="1">
          <mxGeometry x="500" y="380" width="120" height="60" as="geometry" />
        </mxCell>
        <mxCell id="4F1QlJ6JB6xt5xaRoZOq-166" value="" style="edgeStyle=orthogonalEdgeStyle;rounded=0;orthogonalLoop=1;jettySize=auto;html=1;flowAnimation=1;" parent="1" source="4F1QlJ6JB6xt5xaRoZOq-80" target="4F1QlJ6JB6xt5xaRoZOq-82" edge="1">
          <mxGeometry relative="1" as="geometry">
            <Array as="points">
              <mxPoint x="570" y="660" />
              <mxPoint x="570" y="660" />
            </Array>
          </mxGeometry>
        </mxCell>
        <mxCell id="4F1QlJ6JB6xt5xaRoZOq-167" style="edgeStyle=orthogonalEdgeStyle;rounded=0;orthogonalLoop=1;jettySize=auto;html=1;flowAnimation=1;" parent="1" source="4F1QlJ6JB6xt5xaRoZOq-80" target="4F1QlJ6JB6xt5xaRoZOq-92" edge="1">
          <mxGeometry relative="1" as="geometry">
            <Array as="points">
              <mxPoint x="570" y="660" />
              <mxPoint x="700" y="660" />
            </Array>
          </mxGeometry>
        </mxCell>
        <mxCell id="4F1QlJ6JB6xt5xaRoZOq-80" value="show change credentials screen" style="whiteSpace=wrap;html=1;" parent="1" vertex="1">
          <mxGeometry x="510" y="585" width="120" height="60" as="geometry" />
        </mxCell>
        <mxCell id="4F1QlJ6JB6xt5xaRoZOq-89" value="" style="edgeStyle=orthogonalEdgeStyle;rounded=0;orthogonalLoop=1;jettySize=auto;html=1;flowAnimation=1;" parent="1" source="4F1QlJ6JB6xt5xaRoZOq-82" target="4F1QlJ6JB6xt5xaRoZOq-87" edge="1">
          <mxGeometry relative="1" as="geometry">
            <Array as="points">
              <mxPoint x="560" y="800" />
              <mxPoint x="570" y="800" />
            </Array>
          </mxGeometry>
        </mxCell>
        <mxCell id="4F1QlJ6JB6xt5xaRoZOq-82" value="hit save" style="whiteSpace=wrap;html=1;" parent="1" vertex="1">
          <mxGeometry x="500" y="700" width="120" height="60" as="geometry" />
        </mxCell>
        <mxCell id="4F1QlJ6JB6xt5xaRoZOq-139" value="yes" style="edgeStyle=orthogonalEdgeStyle;rounded=0;orthogonalLoop=1;jettySize=auto;html=1;flowAnimation=1;" parent="1" source="4F1QlJ6JB6xt5xaRoZOq-84" target="4F1QlJ6JB6xt5xaRoZOq-96" edge="1">
          <mxGeometry relative="1" as="geometry" />
        </mxCell>
        <mxCell id="XtUtBU1WWb-rquu9KspY-1" value="no" style="edgeStyle=orthogonalEdgeStyle;rounded=0;orthogonalLoop=1;jettySize=auto;html=1;flowAnimation=1;" parent="1" source="4F1QlJ6JB6xt5xaRoZOq-84" target="4F1QlJ6JB6xt5xaRoZOq-80" edge="1">
          <mxGeometry x="-0.9091" relative="1" as="geometry">
            <Array as="points">
              <mxPoint x="490" y="980" />
              <mxPoint x="490" y="600" />
            </Array>
            <mxPoint as="offset" />
          </mxGeometry>
        </mxCell>
        <mxCell id="4F1QlJ6JB6xt5xaRoZOq-84" value="confirm?" style="rhombus;whiteSpace=wrap;html=1;" parent="1" vertex="1">
          <mxGeometry x="530" y="940" width="80" height="80" as="geometry" />
        </mxCell>
        <mxCell id="4F1QlJ6JB6xt5xaRoZOq-90" value="" style="edgeStyle=orthogonalEdgeStyle;rounded=0;orthogonalLoop=1;jettySize=auto;html=1;flowAnimation=1;" parent="1" source="4F1QlJ6JB6xt5xaRoZOq-87" target="4F1QlJ6JB6xt5xaRoZOq-84" edge="1">
          <mxGeometry relative="1" as="geometry" />
        </mxCell>
        <mxCell id="4F1QlJ6JB6xt5xaRoZOq-87" value="display original next to what&#39;s been changed" style="whiteSpace=wrap;html=1;" parent="1" vertex="1">
          <mxGeometry x="510" y="840" width="120" height="60" as="geometry" />
        </mxCell>
        <mxCell id="4F1QlJ6JB6xt5xaRoZOq-95" value="" style="edgeStyle=orthogonalEdgeStyle;rounded=0;orthogonalLoop=1;jettySize=auto;html=1;flowAnimation=1;" parent="1" source="4F1QlJ6JB6xt5xaRoZOq-92" target="4F1QlJ6JB6xt5xaRoZOq-94" edge="1">
          <mxGeometry relative="1" as="geometry" />
        </mxCell>
        <mxCell id="4F1QlJ6JB6xt5xaRoZOq-92" value="hit cancel" style="whiteSpace=wrap;html=1;" parent="1" vertex="1">
          <mxGeometry x="640" y="700" width="120" height="60" as="geometry" />
        </mxCell>
        <mxCell id="4F1QlJ6JB6xt5xaRoZOq-107" value="yes" style="edgeStyle=orthogonalEdgeStyle;rounded=0;orthogonalLoop=1;jettySize=auto;html=1;entryX=1;entryY=0.5;entryDx=0;entryDy=0;flowAnimation=1;" parent="1" source="4F1QlJ6JB6xt5xaRoZOq-94" target="4F1QlJ6JB6xt5xaRoZOq-32" edge="1">
          <mxGeometry x="-0.8966" relative="1" as="geometry">
            <Array as="points">
              <mxPoint x="810" y="880" />
              <mxPoint x="810" y="50" />
            </Array>
            <mxPoint as="offset" />
          </mxGeometry>
        </mxCell>
        <mxCell id="4F1QlJ6JB6xt5xaRoZOq-129" value="no" style="edgeStyle=orthogonalEdgeStyle;rounded=0;orthogonalLoop=1;jettySize=auto;html=1;entryX=1;entryY=0.5;entryDx=0;entryDy=0;flowAnimation=1;" parent="1" source="4F1QlJ6JB6xt5xaRoZOq-94" target="4F1QlJ6JB6xt5xaRoZOq-80" edge="1">
          <mxGeometry relative="1" as="geometry">
            <Array as="points">
              <mxPoint x="770" y="850" />
              <mxPoint x="770" y="600" />
            </Array>
          </mxGeometry>
        </mxCell>
        <mxCell id="4F1QlJ6JB6xt5xaRoZOq-94" value="confirm?" style="rhombus;whiteSpace=wrap;html=1;" parent="1" vertex="1">
          <mxGeometry x="660" y="840" width="80" height="80" as="geometry" />
        </mxCell>
        <mxCell id="4F1QlJ6JB6xt5xaRoZOq-155" style="edgeStyle=orthogonalEdgeStyle;rounded=0;orthogonalLoop=1;jettySize=auto;html=1;flowAnimation=1;" parent="1" source="4F1QlJ6JB6xt5xaRoZOq-96" target="4F1QlJ6JB6xt5xaRoZOq-132" edge="1">
          <mxGeometry relative="1" as="geometry">
            <Array as="points">
              <mxPoint x="710" y="1000" />
              <mxPoint x="780" y="1000" />
            </Array>
          </mxGeometry>
        </mxCell>
        <mxCell id="4F1QlJ6JB6xt5xaRoZOq-96" value="request login credentials" style="whiteSpace=wrap;html=1;" parent="1" vertex="1">
          <mxGeometry x="650" y="930" width="120" height="60" as="geometry" />
        </mxCell>
        <mxCell id="4F1QlJ6JB6xt5xaRoZOq-158" style="edgeStyle=orthogonalEdgeStyle;rounded=0;orthogonalLoop=1;jettySize=auto;html=1;entryX=1;entryY=0.5;entryDx=0;entryDy=0;flowAnimation=1;" parent="1" source="4F1QlJ6JB6xt5xaRoZOq-98" target="4F1QlJ6JB6xt5xaRoZOq-32" edge="1">
          <mxGeometry relative="1" as="geometry">
            <Array as="points">
              <mxPoint x="410" y="1120" />
              <mxPoint x="810" y="1120" />
              <mxPoint x="810" y="50" />
            </Array>
          </mxGeometry>
        </mxCell>
        <mxCell id="4F1QlJ6JB6xt5xaRoZOq-98" value="save new values" style="whiteSpace=wrap;html=1;" parent="1" vertex="1">
          <mxGeometry x="354" y="760" width="120" height="60" as="geometry" />
        </mxCell>
        <mxCell id="4F1QlJ6JB6xt5xaRoZOq-101" value="" style="edgeStyle=orthogonalEdgeStyle;rounded=0;orthogonalLoop=1;jettySize=auto;html=1;flowAnimation=1;" parent="1" source="4F1QlJ6JB6xt5xaRoZOq-78" target="4F1QlJ6JB6xt5xaRoZOq-100" edge="1">
          <mxGeometry relative="1" as="geometry">
            <mxPoint x="560" y="530" as="sourcePoint" />
            <mxPoint x="560" y="610" as="targetPoint" />
          </mxGeometry>
        </mxCell>
        <mxCell id="4F1QlJ6JB6xt5xaRoZOq-102" value="yes" style="edgeStyle=orthogonalEdgeStyle;rounded=0;orthogonalLoop=1;jettySize=auto;html=1;flowAnimation=1;" parent="1" source="4F1QlJ6JB6xt5xaRoZOq-100" target="4F1QlJ6JB6xt5xaRoZOq-80" edge="1">
          <mxGeometry relative="1" as="geometry" />
        </mxCell>
        <mxCell id="4F1QlJ6JB6xt5xaRoZOq-108" value="no" style="edgeStyle=orthogonalEdgeStyle;rounded=0;orthogonalLoop=1;jettySize=auto;html=1;entryX=1;entryY=0.5;entryDx=0;entryDy=0;flowAnimation=1;" parent="1" source="4F1QlJ6JB6xt5xaRoZOq-100" target="4F1QlJ6JB6xt5xaRoZOq-32" edge="1">
          <mxGeometry x="-0.9565" relative="1" as="geometry">
            <Array as="points">
              <mxPoint x="810" y="530" />
              <mxPoint x="810" y="50" />
            </Array>
            <mxPoint as="offset" />
          </mxGeometry>
        </mxCell>
        <mxCell id="4F1QlJ6JB6xt5xaRoZOq-100" value="correct credentials?" style="rhombus;whiteSpace=wrap;html=1;" parent="1" vertex="1">
          <mxGeometry x="520" y="470" width="80" height="80" as="geometry" />
        </mxCell>
        <mxCell id="4F1QlJ6JB6xt5xaRoZOq-126" value="no" style="edgeStyle=orthogonalEdgeStyle;rounded=0;orthogonalLoop=1;jettySize=auto;html=1;entryX=1;entryY=0.5;entryDx=0;entryDy=0;flowAnimation=1;" parent="1" source="4F1QlJ6JB6xt5xaRoZOq-109" target="4F1QlJ6JB6xt5xaRoZOq-32" edge="1">
          <mxGeometry x="-0.8701" relative="1" as="geometry">
            <Array as="points">
              <mxPoint x="810" y="290" />
              <mxPoint x="810" y="50" />
            </Array>
            <mxPoint as="offset" />
          </mxGeometry>
        </mxCell>
        <mxCell id="4F1QlJ6JB6xt5xaRoZOq-109" value="confirm" style="rhombus;whiteSpace=wrap;html=1;" parent="1" vertex="1">
          <mxGeometry x="630" y="250" width="80" height="80" as="geometry" />
        </mxCell>
        <mxCell id="4F1QlJ6JB6xt5xaRoZOq-111" value="logout" style="whiteSpace=wrap;html=1;" parent="1" vertex="1">
          <mxGeometry x="640" y="380" width="120" height="60" as="geometry" />
        </mxCell>
        <mxCell id="4F1QlJ6JB6xt5xaRoZOq-112" value="close app" style="shape=ellipse;html=1;dashed=0;whiteSpace=wrap;aspect=fixed;strokeWidth=5;perimeter=ellipsePerimeter;" parent="1" vertex="1">
          <mxGeometry x="700" y="450" width="60" height="60" as="geometry" />
        </mxCell>
        <mxCell id="4F1QlJ6JB6xt5xaRoZOq-118" value="yes" style="edgeStyle=orthogonalEdgeStyle;rounded=0;orthogonalLoop=1;jettySize=auto;html=1;entryX=0.142;entryY=0.033;entryDx=0;entryDy=0;entryPerimeter=0;flowAnimation=1;" parent="1" source="4F1QlJ6JB6xt5xaRoZOq-109" target="4F1QlJ6JB6xt5xaRoZOq-111" edge="1">
          <mxGeometry relative="1" as="geometry">
            <Array as="points">
              <mxPoint x="640" y="360" />
              <mxPoint x="657" y="360" />
            </Array>
          </mxGeometry>
        </mxCell>
        <mxCell id="4F1QlJ6JB6xt5xaRoZOq-123" style="edgeStyle=orthogonalEdgeStyle;rounded=0;orthogonalLoop=1;jettySize=auto;html=1;entryX=-0.017;entryY=0.767;entryDx=0;entryDy=0;entryPerimeter=0;flowAnimation=1;" parent="1" source="4F1QlJ6JB6xt5xaRoZOq-111" target="4F1QlJ6JB6xt5xaRoZOq-112" edge="1">
          <mxGeometry relative="1" as="geometry">
            <Array as="points">
              <mxPoint x="640" y="496" />
            </Array>
          </mxGeometry>
        </mxCell>
        <mxCell id="4F1QlJ6JB6xt5xaRoZOq-152" value="no" style="edgeStyle=orthogonalEdgeStyle;rounded=0;orthogonalLoop=1;jettySize=auto;html=1;flowAnimation=1;" parent="1" source="4F1QlJ6JB6xt5xaRoZOq-132" target="4F1QlJ6JB6xt5xaRoZOq-135" edge="1">
          <mxGeometry relative="1" as="geometry">
            <Array as="points">
              <mxPoint x="690" y="1050" />
              <mxPoint x="690" y="1050" />
            </Array>
          </mxGeometry>
        </mxCell>
        <mxCell id="4F1QlJ6JB6xt5xaRoZOq-132" value="correct credentials?" style="rhombus;whiteSpace=wrap;html=1;" parent="1" vertex="1">
          <mxGeometry x="740" y="1010" width="80" height="80" as="geometry" />
        </mxCell>
        <mxCell id="XtUtBU1WWb-rquu9KspY-4" style="edgeStyle=orthogonalEdgeStyle;rounded=0;orthogonalLoop=1;jettySize=auto;html=1;entryX=0;entryY=0.25;entryDx=0;entryDy=0;flowAnimation=1;" parent="1" source="4F1QlJ6JB6xt5xaRoZOq-135" target="4F1QlJ6JB6xt5xaRoZOq-80" edge="1">
          <mxGeometry relative="1" as="geometry">
            <Array as="points">
              <mxPoint x="490" y="1030" />
              <mxPoint x="490" y="600" />
            </Array>
          </mxGeometry>
        </mxCell>
        <mxCell id="4F1QlJ6JB6xt5xaRoZOq-135" value="error" style="whiteSpace=wrap;html=1;" parent="1" vertex="1">
          <mxGeometry x="560" y="1020" width="120" height="60" as="geometry" />
        </mxCell>
        <mxCell id="4F1QlJ6JB6xt5xaRoZOq-163" value="yes" style="edgeStyle=orthogonalEdgeStyle;rounded=0;orthogonalLoop=1;jettySize=auto;html=1;flowAnimation=1;" parent="1" source="4F1QlJ6JB6xt5xaRoZOq-145" target="4F1QlJ6JB6xt5xaRoZOq-98" edge="1">
          <mxGeometry relative="1" as="geometry">
            <Array as="points">
              <mxPoint x="460" y="870" />
              <mxPoint x="460" y="870" />
            </Array>
          </mxGeometry>
        </mxCell>
        <mxCell id="XtUtBU1WWb-rquu9KspY-3" value="no" style="edgeStyle=orthogonalEdgeStyle;rounded=0;orthogonalLoop=1;jettySize=auto;html=1;entryX=0;entryY=0.25;entryDx=0;entryDy=0;flowAnimation=1;" parent="1" source="4F1QlJ6JB6xt5xaRoZOq-145" target="4F1QlJ6JB6xt5xaRoZOq-80" edge="1">
          <mxGeometry x="-0.9184" relative="1" as="geometry">
            <Array as="points">
              <mxPoint x="490" y="600" />
            </Array>
            <mxPoint as="offset" />
          </mxGeometry>
        </mxCell>
        <mxCell id="4F1QlJ6JB6xt5xaRoZOq-145" value="confirm?" style="rhombus;whiteSpace=wrap;html=1;" parent="1" vertex="1">
          <mxGeometry x="420" y="1040" width="80" height="80" as="geometry" />
        </mxCell>
        <mxCell id="4F1QlJ6JB6xt5xaRoZOq-156" value="yes" style="edgeStyle=orthogonalEdgeStyle;rounded=0;orthogonalLoop=1;jettySize=auto;html=1;entryX=0.925;entryY=0.688;entryDx=0;entryDy=0;entryPerimeter=0;flowAnimation=1;" parent="1" source="4F1QlJ6JB6xt5xaRoZOq-132" target="4F1QlJ6JB6xt5xaRoZOq-145" edge="1">
          <mxGeometry relative="1" as="geometry">
            <Array as="points">
              <mxPoint x="780" y="1100" />
              <mxPoint x="518" y="1100" />
            </Array>
          </mxGeometry>
        </mxCell>
        <mxCell id="XtUtBU1WWb-rquu9KspY-12" value="" style="edgeStyle=orthogonalEdgeStyle;rounded=0;orthogonalLoop=1;jettySize=auto;html=1;" parent="1" source="XtUtBU1WWb-rquu9KspY-6" target="XtUtBU1WWb-rquu9KspY-11" edge="1">
          <mxGeometry relative="1" as="geometry" />
        </mxCell>
        <mxCell id="XtUtBU1WWb-rquu9KspY-6" value="show each action in a row (acount to, from, action, and amount)" style="whiteSpace=wrap;html=1;" parent="1" vertex="1">
          <mxGeometry x="90" y="320" width="120" height="60" as="geometry" />
        </mxCell>
        <mxCell id="XtUtBU1WWb-rquu9KspY-14" value="" style="edgeStyle=orthogonalEdgeStyle;rounded=0;orthogonalLoop=1;jettySize=auto;html=1;" parent="1" source="XtUtBU1WWb-rquu9KspY-9" target="XtUtBU1WWb-rquu9KspY-13" edge="1">
          <mxGeometry relative="1" as="geometry" />
        </mxCell>
        <mxCell id="XtUtBU1WWb-rquu9KspY-9" value="click on one account" style="whiteSpace=wrap;html=1;" parent="1" vertex="1">
          <mxGeometry x="280" y="320" width="120" height="60" as="geometry" />
        </mxCell>
        <mxCell id="XtUtBU1WWb-rquu9KspY-15" value="yes" style="edgeStyle=orthogonalEdgeStyle;rounded=0;orthogonalLoop=1;jettySize=auto;html=1;flowAnimation=1;" parent="1" source="XtUtBU1WWb-rquu9KspY-11" target="XtUtBU1WWb-rquu9KspY-13" edge="1">
          <mxGeometry relative="1" as="geometry" />
        </mxCell>
        <mxCell id="XtUtBU1WWb-rquu9KspY-17" value="no" style="edgeStyle=orthogonalEdgeStyle;rounded=0;orthogonalLoop=1;jettySize=auto;html=1;entryX=0.25;entryY=1;entryDx=0;entryDy=0;" parent="1" source="XtUtBU1WWb-rquu9KspY-11" target="XtUtBU1WWb-rquu9KspY-6" edge="1">
          <mxGeometry relative="1" as="geometry">
            <Array as="points">
              <mxPoint x="120" y="450" />
            </Array>
          </mxGeometry>
        </mxCell>
        <mxCell id="XtUtBU1WWb-rquu9KspY-20" value="" style="edgeStyle=orthogonalEdgeStyle;rounded=0;orthogonalLoop=1;jettySize=auto;html=1;" parent="1" source="XtUtBU1WWb-rquu9KspY-11" target="XtUtBU1WWb-rquu9KspY-19" edge="1">
          <mxGeometry relative="1" as="geometry" />
        </mxCell>
        <mxCell id="XtUtBU1WWb-rquu9KspY-11" value="clicked on name of account?" style="rhombus;whiteSpace=wrap;html=1;" parent="1" vertex="1">
          <mxGeometry x="180" y="440" width="80" height="80" as="geometry" />
        </mxCell>
        <mxCell id="XtUtBU1WWb-rquu9KspY-13" value="go to page for that acount" style="whiteSpace=wrap;html=1;" parent="1" vertex="1">
          <mxGeometry x="300" y="450" width="120" height="60" as="geometry" />
        </mxCell>
        <mxCell id="XtUtBU1WWb-rquu9KspY-21" value="no" style="edgeStyle=orthogonalEdgeStyle;rounded=0;orthogonalLoop=1;jettySize=auto;html=1;entryX=0;entryY=0.75;entryDx=0;entryDy=0;" parent="1" source="XtUtBU1WWb-rquu9KspY-19" target="XtUtBU1WWb-rquu9KspY-6" edge="1">
          <mxGeometry relative="1" as="geometry">
            <Array as="points">
              <mxPoint x="70" y="365" />
            </Array>
          </mxGeometry>
        </mxCell>
        <mxCell id="XtUtBU1WWb-rquu9KspY-19" value="hit exit button (stays pinned at top)" style="rhombus;whiteSpace=wrap;html=1;" parent="1" vertex="1">
          <mxGeometry x="30" y="435" width="90" height="90" as="geometry" />
        </mxCell>
        <mxCell id="XtUtBU1WWb-rquu9KspY-23" style="edgeStyle=orthogonalEdgeStyle;rounded=0;orthogonalLoop=1;jettySize=auto;html=1;entryX=0.383;entryY=0.017;entryDx=0;entryDy=0;entryPerimeter=0;" parent="1" source="XtUtBU1WWb-rquu9KspY-19" target="4F1QlJ6JB6xt5xaRoZOq-32" edge="1">
          <mxGeometry relative="1" as="geometry">
            <Array as="points">
              <mxPoint y="480" />
              <mxPoint />
              <mxPoint x="576" />
            </Array>
          </mxGeometry>
        </mxCell>
      </root>
    </mxGraphModel>
  </diagram>
  <diagram id="3a3kzVpcco2Lt_tLDVck" name="Page-2">
    <mxGraphModel dx="1434" dy="956" grid="1" gridSize="10" guides="1" tooltips="1" connect="1" arrows="1" fold="1" page="1" pageScale="1" pageWidth="850" pageHeight="1100" math="0" shadow="0">
      <root>
        <mxCell id="0" />
        <mxCell id="1" parent="0" />
        <mxCell id="OFeCOLK08nAWAReB3kWw-1" value="withdraw&#xa;deposit&#xa;transfer&#xa;pay bills&#xa;cash checks&#xa;accounts&#xa;    show current balance&#xa;    show accont history&#xa;update personal information/ contact information" style="text;whiteSpace=wrap;" vertex="1" parent="1">
          <mxGeometry x="120" y="90" width="290" height="150" as="geometry" />
        </mxCell>
      </root>
    </mxGraphModel>
  </diagram>
</mxfile>
